HIERARCHY
ROOT Hips
{
    OFFSET 0.000000 0.000000 0.000000
    CHANNELS 6 Xposition Yposition Zposition Zrotation Xrotation Yrotation
    JOINT Spine
    {
        OFFSET -0.000000 7.236184 0.000000
        CHANNELS 3 Zrotation Xrotation Yrotation
        JOINT Spine1
        {
            OFFSET -0.000000 20.420147 0.000000
            CHANNELS 3 Zrotation Xrotation Yrotation
            JOINT Neck
            {
                OFFSET -0.000000 20.336288 1.848754
                CHANNELS 3 Zrotation Xrotation Yrotation
                JOINT Head
                {
                    OFFSET -0.000000 12.354461 -1.764923
                    CHANNELS 3 Zrotation Xrotation Yrotation
                    End Site
                    {
                        OFFSET -0.000000 22.061537 0.000000
                    }
                }
            }
            JOINT LeftShoulder
            {
                OFFSET 3.573296 18.396038 -0.314103
                CHANNELS 3 Zrotation Xrotation Yrotation
                JOINT LeftArm
                {
                    OFFSET 10.880760 0.000000 0.000000
                    CHANNELS 3 Zrotation Xrotation Yrotation
                    JOINT LeftForeArm
                    {
                        OFFSET 27.185530 0.000000 0.000000
                        CHANNELS 3 Zrotation Xrotation Yrotation
                        JOINT LeftHand
                        {
                            OFFSET 27.825975 0.000000 0.000000
                            CHANNELS 3 Zrotation Xrotation Yrotation
                            End Site
                            {
                                OFFSET 13.236923 0.000000 0.000000
                            }
                        }
                    }
                }
            }
            JOINT RightShoulder
            {
                OFFSET -3.474926 18.396038 -0.314103
                CHANNELS 3 Zrotation Xrotation Yrotation
                JOINT RightArm
                {
                    OFFSET -10.880760 0.000000 0.000000
                    CHANNELS 3 Zrotation Xrotation Yrotation
                    JOINT RightForeArm
                    {
                        OFFSET -27.185530 0.000000 0.000000
                        CHANNELS 3 Zrotation Xrotation Yrotation
                        JOINT RightHand
                        {
                            OFFSET -27.825975 0.000000 0.000000
                            CHANNELS 3 Zrotation Xrotation Yrotation
                            End Site
                            {
                                OFFSET -13.236923 0.000000 0.000000
                            }
                        }
                    }
                }
            }
        }
    }
    JOINT LeftUpLeg
    {
        OFFSET 8.824615 0.000000 0.000000
        CHANNELS 3 Zrotation Xrotation Yrotation
        JOINT LeftLeg
        {
            OFFSET -0.000000 -35.111282 0.000000
            CHANNELS 3 Zrotation Xrotation Yrotation
            JOINT LeftFoot
            {
                OFFSET -0.000000 -42.324711 0.000000
                CHANNELS 3 Zrotation Xrotation Yrotation
                JOINT LeftToeBase
                {
                    OFFSET -0.000000 -5.735999 13.236923
                    CHANNELS 3 Zrotation Xrotation Yrotation
                    End Site
                    {
                        OFFSET -0.000000 0.000000 3.529846
                    }
                }
            }
        }
    }
    JOINT RightUpLeg
    {
        OFFSET -8.824615 0.000000 0.000000
        CHANNELS 3 Zrotation Xrotation Yrotation
        JOINT RightLeg
        {
            OFFSET -0.000000 -35.111282 0.000000
            CHANNELS 3 Zrotation Xrotation Yrotation
            JOINT RightFoot
            {
                OFFSET -0.000000 -42.324711 0.000000
                CHANNELS 3 Zrotation Xrotation Yrotation
                JOINT RightToeBase
                {
                    OFFSET -0.000000 -5.735999 13.236923
                    CHANNELS 3 Zrotation Xrotation Yrotation
                    End Site
                    {
                        OFFSET -0.000000 0.000000 3.529846
                    }
                }
            }
        }
    }
}
MOTION
Frames:    11
Frame Time:    0.008333
-4.912370    79.797539    105.364563    0.132840    -9.794574    -175.330780    -0.873986    -15.933454    2.347421    -0.318556    11.133278    2.500794    0.341379    -2.560596    -2.656239    4.889637    -17.340553    -1.407389    2.399743    18.905102    -3.613891    -41.512894    46.597080    -39.018776    1.933288    -0.103822    -15.739453    11.742031    0.944155    7.578835    6.054919    24.734541    -1.558151    33.889549    44.547916    42.708977    -4.981867    -11.182499    16.848722    -14.522238    -9.976721    -3.831389    9.212247    -11.065950    1.432910    -3.167837    10.186606    -6.505446    -6.396215    -7.978900    -4.304255    -0.580451    -0.464044    0.643949    -8.577229    -5.786355    -5.546175    3.818407    5.424059    0.765524    2.714486    -5.731995    -13.527589    -2.175063    -0.087702    2.352736    
-4.922754    79.798553    105.363655    0.134334    -9.805621    -175.283707    -0.860781    -15.940742    2.357667    -0.343993    11.125332    2.511699    0.324428    -2.517429    -2.697779    4.907415    -17.331512    -1.442816    2.382788    18.902788    -3.562499    -41.804787    46.550098    -38.923832    1.971830    -0.055506    -15.602143    11.681012    1.009747    7.761702    6.061918    24.744141    -1.588970    33.958733    44.547974    42.688953    -5.071930    -11.209577    17.088644    -14.574550    -9.981985    -3.802190    9.198614    -11.094250    1.409660    -3.167455    10.197564    -6.517754    -6.401127    -7.976686    -4.315514    -0.572469    -0.448040    0.635075    -8.589173    -5.797963    -5.611603    3.815294    5.451789    0.780000    2.718968    -5.754317    -13.524411    -2.170108    -0.080850    2.347354    
-4.932999    79.799553    105.362701    0.135623    -9.816238    -175.236862    -0.847583    -15.947759    2.367751    -0.369820    11.117711    2.522478    0.308122    -2.475172    -2.738595    4.924534    -17.321894    -1.477836    2.365756    18.901546    -3.512050    -42.094486    46.500481    -38.827339    2.005932    -0.017747    -15.466816    11.625377    1.064167    7.939220    6.068712    24.753456    -1.619616    34.026260    44.548676    42.670135    -5.160465    -11.236255    17.327129    -14.625553    -9.986753    -3.773437    9.184743    -11.122401    1.386819    -3.166695    10.209254    -6.530678    -6.411899    -7.974351    -4.327505    -0.565196    -0.434469    0.626991    -8.601171    -5.809066    -5.673981    3.812498    5.479155    0.792388    2.723284    -5.776265    -13.522037    -2.165442    -0.073959    2.342285    
-4.943123    79.800507    105.361641    0.136480    -9.826251    -175.189819    -0.834316    -15.954582    2.377603    -0.396632    11.110805    2.533092    0.292809    -2.433508    -2.778535    4.940485    -17.312008    -1.512457    2.347934    18.901737    -3.462915    -42.383480    46.445774    -38.726971    2.031895    0.001623    -15.333082    11.576980    1.098510    8.109436    6.075366    24.762068    -1.650001    34.091667    44.550938    42.652912    -5.247663    -11.262498    17.565681    -14.675084    -9.990953    -3.745107    9.170155    -11.150758    1.364598    -3.165138    10.222606    -6.545204    -6.432067    -7.971971    -4.340574    -0.558848    -0.424967    0.619939    -8.613352    -5.819476    -5.731785    3.809865    5.506401    0.801144    2.727686    -5.798032    -13.520923    -2.161056    -0.067609    2.337521    
-4.953130    79.801414    105.360390    0.136678    -9.835485    -175.142365    -0.820982    -15.961059    2.387170    -0.424889    11.104742    2.543595    0.278830    -2.392745    -2.817434    4.954867    -17.301392    -1.546747    2.329309    18.903765    -3.415219    -42.671642    46.384937    -38.621971    2.047489    -0.003827    -15.201086    11.537180    1.106299    8.270177    6.081822    24.770115    -1.680439    34.153599    44.555653    42.638702    -5.333673    -11.288468    17.804754    -14.722645    -9.994683    -3.717109    9.154521    -11.179410    1.342703    -3.162723    10.238094    -6.561202    -6.460942    -7.969775    -4.354669    -0.553268    -0.419842    0.613743    -8.625970    -5.829021    -5.783749    3.807703    5.533593    0.804951    2.732228    -5.819654    -13.521292    -2.157302    -0.061221    2.333440    
-4.962977    79.802254    105.358871    0.136252    -9.843603    -175.094376    -0.807436    -15.967004    2.396492    -0.454825    11.099757    2.553945    0.266110    -2.353546    -2.855284    4.967973    -17.289495    -1.580582    2.309776    18.907701    -3.368783    -42.958466    46.317371    -38.512009    2.051522    -0.037990    -15.070625    11.506934    1.083220    8.419407    6.088253    24.777281    -1.711076    34.211170    44.563572    42.627918    -5.418252    -11.314119    18.044533    -14.768235    -9.997944    -3.689564    9.137790    -11.208335    1.321915    -3.158982    10.256382    -6.579865    -6.495227    -7.968322    -4.368900    -0.548016    -0.418389    0.607915    -8.638812    -5.837492    -5.829786    3.805649    5.561132    0.803685    2.737198    -5.841407    -13.523227    -2.154210    -0.054976    2.330076    
-4.972609    79.802994    105.357101    0.135197    -9.850369    -175.045929    -0.793694    -15.972295    2.405537    -0.486400    11.096009    2.564130    0.254756    -2.315345    -2.891901    4.979846    -17.277254    -1.613760    2.289316    18.913340    -3.323946    -43.242832    46.243114    -38.396816    2.044029    -0.103186    -14.941938    11.485557    1.027073    8.555049    6.094476    24.783737    -1.741611    34.263504    44.574997    42.621239    -5.501136    -11.339488    18.283852    -14.811644    -10.000849    -3.662776    9.119990    -11.237441    1.302360    -3.153879    10.277820    -6.601191    -6.530845    -7.968114    -4.382575    -0.542564    -0.419339    0.601868    -8.651891    -5.844837    -5.870072    3.803945    5.589225    0.797776    2.742555    -5.863330    -13.526926    -2.152131    -0.048806    2.327808    
-4.982148    79.803619    105.354980    0.133385    -9.855924    -174.996475    -0.779660    -15.976956    2.414472    -0.520159    11.093344    2.574406    0.244942    -2.277562    -2.927724    4.990300    -17.264837    -1.646774    2.268003    18.920374    -3.279737    -43.527973    46.161591    -38.275085    2.025675    -0.201610    -14.812973    11.471077    0.935945    8.677569    6.100713    24.789553    -1.772391    34.310650    44.590958    42.618687    -5.583851    -11.365170    18.525545    -14.853453    -10.003617    -3.636503    9.100699    -11.267281    1.284138    -3.147096    10.302983    -6.625641    -6.566475    -7.969352    -4.395724    -0.536606    -0.422299    0.595262    -8.665390    -5.851413    -5.905588    3.802140    5.618720    0.786834    2.748864    -5.886013    -13.531680    -2.151336    -0.042047    2.326927    
-4.991480    79.804108    105.352547    0.130865    -9.860244    -174.946442    -0.765563    -15.980908    2.423265    -0.555590    11.091598    2.584686    0.236047    -2.240026    -2.962663    5.000610    -17.253000    -1.679090    2.246267    18.928331    -3.236353    -43.811359    46.073467    -38.147766    1.997605    -0.331462    -14.684082    11.462509    0.809131    8.784524    6.106973    24.795046    -1.803117    34.351868    44.611103    42.620304    -5.665576    -11.390732    18.766787    -14.893394    -10.006045    -3.611269    9.080133    -11.297706    1.267462    -3.138699    10.331796    -6.652745    -6.601121    -7.972117    -4.408467    -0.529994    -0.426386    0.587932    -8.679157    -5.857142    -5.935878    3.800260    5.649310    0.770947    2.756081    -5.909419    -13.537738    -2.151967    -0.035178    2.327587    
-5.000716    79.804451    105.349731    0.127752    -9.863177    -174.895050    -0.751124    -15.983846    2.432175    -0.593023    11.090440    2.595207    0.227920    -2.201679    -2.997364    5.010868    -17.242208    -1.711222    2.223950    18.936815    -3.192387    -44.097298    45.977642    -38.013016    1.960098    -0.495614    -14.552485    11.459015    0.646989    8.876373    6.113164    24.800158    -1.834104    34.388569    44.636070    42.625305    -5.748029    -11.416215    19.010815    -14.932242    -10.007689    -3.587153    9.058140    -11.329106    1.252253    -3.128327    10.365108    -6.683175    -6.635836    -7.976730    -4.421136    -0.522578    -0.432004    0.579711    -8.693192    -5.861857    -5.961301    3.798257    5.681368    0.749709    2.764313    -5.934011    -13.545199    -2.154357    -0.027546    2.330147    
-5.009471    79.804611    105.346611    0.124275    -9.864772    -174.844345    -0.737020    -15.985947    2.440927    -0.630637    11.089801    2.605639    0.220529    -2.163795    -3.030652    5.021229    -17.232864    -1.741962    2.202339    18.945480    -3.149482    -44.374893    45.877388    -37.876354    1.915417    -0.684748    -14.422193    11.462080    0.457540    8.949210    6.118988    24.805141    -1.863804    34.420128    44.664063    42.632610    -5.828005    -11.440032    19.247431    -14.968747    -10.007862    -3.565367    9.035771    -11.360310    1.239062    -3.116655    10.401362    -6.715376    -6.670764    -7.982727    -4.433810    -0.514804    -0.438401    0.571094    -8.706818    -5.865298    -5.981455    3.796177    5.713247    0.724444    2.773181    -5.958845    -13.553739    -2.158469    -0.019350    2.334569    
